<svg xmlns="http://www.w3.org/2000/svg" xmlns:xlink="http://www.w3.org/1999/xlink" width="37.534" height="37.534" viewBox="0 0 37.534 37.534"><defs><linearGradient id="a" x1="0.761" y1="0.752" x2="-0.36" y2="-0.195" gradientUnits="objectBoundingBox"><stop offset="0" stop-color="#0163c0"/><stop offset="1" stop-color="#071d49"/></linearGradient><linearGradient id="b" x1="0.965" y1="0.81" x2="-0.238" y2="0.028" gradientUnits="objectBoundingBox"><stop offset="0" stop-color="#5e57bc"/><stop offset="1" stop-color="#0163c0"/></linearGradient><linearGradient id="c" x1="0.076" y1="0.563" x2="1.657" y2="0.122" gradientUnits="objectBoundingBox"><stop offset="0" stop-color="#02f3e7"/><stop offset="1" stop-color="#0163c0"/></linearGradient><linearGradient id="d" x1="-0.441" y1="-0.204" x2="1.314" y2="0.822" gradientUnits="objectBoundingBox"><stop offset="0" stop-color="#02f3e7" stop-opacity="0.2"/><stop offset="1" stop-color="#5e57bc"/></linearGradient><linearGradient id="e" x1="1.04" y1="-0.235" x2="0.348" y2="0.625" gradientUnits="objectBoundingBox"><stop offset="0" stop-color="#02f3e7"/><stop offset="1" stop-color="#02f3e7" stop-opacity="0"/></linearGradient></defs><g transform="translate(-167.433 -760.938)"><path d="M189.068,822.748a18.5,18.5,0,0,1-12.14-2.235A17.841,17.841,0,0,1,169.634,813a18.911,18.911,0,0,1-1.561-13.684,3.665,3.665,0,0,1,7.1.1q.072.283.158.564c1,3.281,4.092,6.409,9.847,7.875a2.539,2.539,0,0,1,1.909,2.462h0a1.531,1.531,0,0,1-1.634,1.529,22.918,22.918,0,0,1-7.656-1.833,1.529,1.529,0,0,0-2.158,1.23,3.921,3.921,0,0,0,.59,2.5c1.543,2.432,5.283,5.677,11.4,6.1a2.638,2.638,0,0,1,2.182,1.47h0A1,1,0,0,1,189.068,822.748Zm-16.317-28.632a4.637,4.637,0,0,0,6.87-5.435,1.731,1.731,0,0,0-2.467-.929,18.828,18.828,0,0,0-4.733,3.711A1.744,1.744,0,0,0,172.751,794.116Z" transform="translate(-0.001 -24.511)" fill="url(#a)"/><path d="M189.067,822.757a18.5,18.5,0,0,1-12.14-2.236,17.844,17.844,0,0,1-7.294-7.515,18.907,18.907,0,0,1-1.562-13.683,3.589,3.589,0,0,1,4.075-2.657,17.414,17.414,0,0,0,4.747,18.01,14.935,14.935,0,0,0,10.73,5.177,2.637,2.637,0,0,1,2.181,1.471A1,1,0,0,1,189.067,822.757Zm-11.914-35a18.831,18.831,0,0,0-4.734,3.71,1.745,1.745,0,0,0,.33,2.654c.108.07.22.134.336.195a17.447,17.447,0,0,1,5.638-6.612A1.737,1.737,0,0,0,177.153,787.761Z" transform="translate(0 -24.52)" fill="url(#b)"/><g transform="translate(182.491 760.937)"><path d="M376.723,792.451A18.837,18.837,0,0,1,372,796.14a1.737,1.737,0,0,1-2.48-.976,4.637,4.637,0,0,1,6.86-5.384A1.746,1.746,0,0,1,376.723,792.451Zm2.8-21.529a17.841,17.841,0,0,0-7.294-7.516,18.5,18.5,0,0,0-12.14-2.235,1,1,0,0,0-.738,1.433h0a2.638,2.638,0,0,0,2.182,1.47c6.115.427,9.856,3.672,11.4,6.1a3.921,3.921,0,0,1,.59,2.5,1.529,1.529,0,0,1-2.158,1.23,22.915,22.915,0,0,0-7.656-1.833,1.531,1.531,0,0,0-1.634,1.529,2.539,2.539,0,0,0,1.909,2.462c5.755,1.467,8.842,4.594,9.847,7.875q.086.282.158.564a3.665,3.665,0,0,0,7.1.1A18.911,18.911,0,0,0,379.527,770.922Z" transform="translate(-359.252 -760.937)" fill="url(#c)"/></g><path d="M232.681,764.17a4.624,4.624,0,0,1,.257,1.466,22.239,22.239,0,0,0-7.9,2.783,1.75,1.75,0,0,1,.444-1.467,18.831,18.831,0,0,1,4.734-3.71A1.731,1.731,0,0,1,232.681,764.17Zm23.147,6.752a17.833,17.833,0,0,0-7.295-7.515,18.5,18.5,0,0,0-12.139-2.236,1,1,0,0,0-.738,1.433,2.636,2.636,0,0,0,2.182,1.469,15.124,15.124,0,0,1,10.335,4.716,22.446,22.446,0,0,1,9.737,13.1A19.2,19.2,0,0,0,255.828,770.922Z" transform="translate(-53.061 0)" fill="url(#d)"/><path d="M410.027,784.61a3.655,3.655,0,0,1-5.47,2.158,17.393,17.393,0,0,0-13.9-25.778,18.605,18.605,0,0,1,10.516,2.422,17.833,17.833,0,0,1,7.295,7.515A18.913,18.913,0,0,1,410.027,784.61Z" transform="translate(-205.699 -0.004)" fill="url(#e)"/></g></svg>